<?xml version="1.0" encoding="utf-8" ?>
<svg baseProfile="tiny" height="32px" version="1.2" width="32px" xmlns="http://www.w3.org/2000/svg" xmlns:ev="http://www.w3.org/2001/xml-events" xmlns:xlink="http://www.w3.org/1999/xlink"><defs /><rect fill="rgb(78,62,6)" height="1" width="1" x="15" y="2" /><rect fill="rgb(88,70,5)" height="1" width="1" x="16" y="2" /><rect fill="rgb(62,49,5)" height="1" width="1" x="11" y="3" /><rect fill="rgb(184,142,6)" height="1" width="1" x="12" y="3" /><rect fill="rgb(191,148,5)" height="1" width="1" x="13" y="3" /><rect fill="rgb(181,141,6)" height="1" width="1" x="14" y="3" /><rect fill="rgb(222,171,5)" height="1" width="1" x="15" y="3" /><rect fill="rgb(216,165,4)" height="1" width="1" x="16" y="3" /><rect fill="rgb(184,142,5)" height="1" width="1" x="17" y="3" /><rect fill="rgb(185,143,5)" height="1" width="1" x="18" y="3" /><rect fill="rgb(180,139,5)" height="1" width="1" x="19" y="3" /><rect fill="rgb(56,44,3)" height="1" width="1" x="20" y="3" /><rect fill="rgb(180,139,7)" height="1" width="1" x="11" y="4" /><rect fill="rgb(215,163,2)" height="1" width="1" x="12" y="4" /><rect fill="rgb(209,161,2)" height="1" width="1" x="13" y="4" /><rect fill="rgb(205,157,2)" height="1" width="1" x="14" y="4" /><rect fill="rgb(201,154,2)" height="1" width="1" x="15" y="4" /><rect fill="rgb(202,155,3)" height="1" width="1" x="16" y="4" /><rect fill="rgb(205,157,2)" height="1" width="1" x="17" y="4" /><rect fill="rgb(208,159,2)" height="1" width="1" x="18" y="4" /><rect fill="rgb(223,171,2)" height="1" width="1" x="19" y="4" /><rect fill="rgb(175,136,6)" height="1" width="1" x="20" y="4" /><rect fill="rgb(48,38,3)" height="1" width="1" x="10" y="5" /><rect fill="rgb(217,167,4)" height="1" width="1" x="11" y="5" /><rect fill="rgb(200,154,2)" height="1" width="1" x="12" y="5" /><rect fill="rgb(199,152,3)" height="1" width="1" x="13" y="5" /><rect fill="rgb(201,154,2)" height="1" width="1" x="14" y="5" /><rect fill="rgb(202,155,3)" height="1" width="1" x="15" y="5" /><rect fill="rgb(208,161,3)" height="1" width="1" x="16" y="5" /><rect fill="rgb(202,155,2)" height="1" width="1" x="17" y="5" /><rect fill="rgb(209,161,3)" height="1" width="1" x="18" y="5" /><rect fill="rgb(213,165,2)" height="1" width="1" x="19" y="5" /><rect fill="rgb(210,161,4)" height="1" width="1" x="20" y="5" /><rect fill="rgb(44,35,4)" height="1" width="1" x="21" y="5" /><rect fill="rgb(102,79,3)" height="1" width="1" x="10" y="6" /><rect fill="rgb(211,160,3)" height="1" width="1" x="11" y="6" /><rect fill="rgb(201,155,2)" height="1" width="1" x="12" y="6" /><rect fill="rgb(200,153,3)" height="1" width="1" x="13" y="6" /><rect fill="rgb(195,148,2)" height="1" width="1" x="14" y="6" /><rect fill="rgb(209,162,3)" height="1" width="1" x="15" y="6" /><rect fill="rgb(200,152,2)" height="1" width="1" x="16" y="6" /><rect fill="rgb(204,157,3)" height="1" width="1" x="17" y="6" /><rect fill="rgb(201,154,2)" height="1" width="1" x="18" y="6" /><rect fill="rgb(206,158,3)" height="1" width="1" x="19" y="6" /><rect fill="rgb(212,162,3)" height="1" width="1" x="20" y="6" /><rect fill="rgb(99,78,5)" height="1" width="1" x="21" y="6" /><rect fill="rgb(27,22,3)" height="1" width="1" x="5" y="7" /><rect fill="rgb(74,59,4)" height="1" width="1" x="6" y="7" /><rect fill="rgb(74,59,3)" height="1" width="1" x="7" y="7" /><rect fill="rgb(58,47,4)" height="1" width="1" x="8" y="7" /><rect fill="rgb(88,69,3)" height="1" width="1" x="10" y="7" /><rect fill="rgb(214,162,3)" height="1" width="1" x="11" y="7" /><rect fill="rgb(187,142,2)" height="1" width="1" x="12" y="7" /><rect fill="rgb(191,144,2)" height="1" width="1" x="13" y="7" /><rect fill="rgb(193,146,3)" height="1" width="1" x="14" y="7" /><rect fill="rgb(195,148,2)" height="1" width="1" x="15" y="7" /><rect fill="rgb(197,150,2)" height="1" width="1" x="16" y="7" /><rect fill="rgb(200,153,3)" height="1" width="1" x="17" y="7" /><rect fill="rgb(192,145,2)" height="1" width="1" x="18" y="7" /><rect fill="rgb(194,148,2)" height="1" width="1" x="19" y="7" /><rect fill="rgb(210,160,3)" height="1" width="1" x="20" y="7" /><rect fill="rgb(75,57,3)" height="1" width="1" x="21" y="7" /><rect fill="rgb(56,45,4)" height="1" width="1" x="23" y="7" /><rect fill="rgb(76,63,4)" height="1" width="1" x="24" y="7" /><rect fill="rgb(74,60,4)" height="1" width="1" x="25" y="7" /><rect fill="rgb(26,22,3)" height="1" width="1" x="26" y="7" /><rect fill="rgb(47,39,4)" height="1" width="1" x="4" y="8" /><rect fill="rgb(205,160,6)" height="1" width="1" x="5" y="8" /><rect fill="rgb(225,174,3)" height="1" width="1" x="6" y="8" /><rect fill="rgb(219,168,3)" height="1" width="1" x="7" y="8" /><rect fill="rgb(214,164,4)" height="1" width="1" x="8" y="8" /><rect fill="rgb(142,111,6)" height="1" width="1" x="9" y="8" /><rect fill="rgb(59,46,5)" height="1" width="1" x="10" y="8" /><rect fill="rgb(184,138,3)" height="1" width="1" x="11" y="8" /><rect fill="rgb(184,138,2)" height="1" width="1" x="12" y="8" /><rect fill="rgb(188,141,2)" height="1" width="1" x="13" y="8" /><rect fill="rgb(183,137,2)" height="1" width="1" x="14" y="8" /><rect fill="rgb(190,143,2)" height="1" width="1" x="15" y="8" /><rect fill="rgb(187,141,2)" height="1" width="1" x="16" y="8" /><rect fill="rgb(180,135,1)" height="1" width="1" x="17" y="8" /><rect fill="rgb(187,141,2)" height="1" width="1" x="18" y="8" /><rect fill="rgb(182,136,2)" height="1" width="1" x="19" y="8" /><rect fill="rgb(174,130,3)" height="1" width="1" x="20" y="8" /><rect fill="rgb(56,44,5)" height="1" width="1" x="21" y="8" /><rect fill="rgb(146,115,6)" height="1" width="1" x="22" y="8" /><rect fill="rgb(215,165,5)" height="1" width="1" x="23" y="8" /><rect fill="rgb(215,166,4)" height="1" width="1" x="24" y="8" /><rect fill="rgb(224,173,3)" height="1" width="1" x="25" y="8" /><rect fill="rgb(201,157,6)" height="1" width="1" x="26" y="8" /><rect fill="rgb(35,29,4)" height="1" width="1" x="27" y="8" /><rect fill="rgb(140,109,6)" height="1" width="1" x="4" y="9" /><rect fill="rgb(213,162,2)" height="1" width="1" x="5" y="9" /><rect fill="rgb(192,146,2)" height="1" width="1" x="6" y="9" /><rect fill="rgb(193,147,2)" height="1" width="1" x="7" y="9" /><rect fill="rgb(201,153,2)" height="1" width="1" x="8" y="9" /><rect fill="rgb(204,154,3)" height="1" width="1" x="9" y="9" /><rect fill="rgb(142,107,5)" height="1" width="1" x="10" y="9" /><rect fill="rgb(130,98,6)" height="1" width="1" x="11" y="9" /><rect fill="rgb(175,132,3)" height="1" width="1" x="12" y="9" /><rect fill="rgb(141,106,3)" height="1" width="1" x="13" y="9" /><rect fill="rgb(134,99,4)" height="1" width="1" x="14" y="9" /><rect fill="rgb(137,102,4)" height="1" width="1" x="15" y="9" /><rect fill="rgb(143,107,4)" height="1" width="1" x="16" y="9" /><rect fill="rgb(144,108,5)" height="1" width="1" x="17" y="9" /><rect fill="rgb(144,107,2)" height="1" width="1" x="18" y="9" /><rect fill="rgb(162,121,2)" height="1" width="1" x="19" y="9" /><rect fill="rgb(129,97,5)" height="1" width="1" x="20" y="9" /><rect fill="rgb(152,116,6)" height="1" width="1" x="21" y="9" /><rect fill="rgb(213,161,3)" height="1" width="1" x="22" y="9" /><rect fill="rgb(200,154,3)" height="1" width="1" x="23" y="9" /><rect fill="rgb(201,154,3)" height="1" width="1" x="24" y="9" /><rect fill="rgb(196,149,2)" height="1" width="1" x="25" y="9" /><rect fill="rgb(212,162,2)" height="1" width="1" x="26" y="9" /><rect fill="rgb(127,98,6)" height="1" width="1" x="27" y="9" /><rect fill="rgb(83,64,6)" height="1" width="1" x="3" y="10" /><rect fill="rgb(210,160,4)" height="1" width="1" x="4" y="10" /><rect fill="rgb(206,160,3)" height="1" width="1" x="5" y="10" /><rect fill="rgb(194,147,2)" height="1" width="1" x="6" y="10" /><rect fill="rgb(198,151,2)" height="1" width="1" x="7" y="10" /><rect fill="rgb(197,149,2)" height="1" width="1" x="8" y="10" /><rect fill="rgb(188,142,3)" height="1" width="1" x="9" y="10" /><rect fill="rgb(180,134,2)" height="1" width="1" x="10" y="10" /><rect fill="rgb(127,97,5)" height="1" width="1" x="11" y="10" /><rect fill="rgb(133,101,6)" height="1" width="1" x="12" y="10" /><rect fill="rgb(185,142,5)" height="1" width="1" x="13" y="10" /><rect fill="rgb(213,166,4)" height="1" width="1" x="14" y="10" /><rect fill="rgb(217,170,4)" height="1" width="1" x="15" y="10" /><rect fill="rgb(226,178,4)" height="1" width="1" x="16" y="10" /><rect fill="rgb(216,168,4)" height="1" width="1" x="17" y="10" /><rect fill="rgb(188,143,4)" height="1" width="1" x="18" y="10" /><rect fill="rgb(127,98,6)" height="1" width="1" x="19" y="10" /><rect fill="rgb(131,99,4)" height="1" width="1" x="20" y="10" /><rect fill="rgb(184,137,2)" height="1" width="1" x="21" y="10" /><rect fill="rgb(188,142,3)" height="1" width="1" x="22" y="10" /><rect fill="rgb(214,167,3)" height="1" width="1" x="23" y="10" /><rect fill="rgb(204,156,2)" height="1" width="1" x="24" y="10" /><rect fill="rgb(208,161,3)" height="1" width="1" x="25" y="10" /><rect fill="rgb(206,159,2)" height="1" width="1" x="26" y="10" /><rect fill="rgb(203,154,3)" height="1" width="1" x="27" y="10" /><rect fill="rgb(80,62,5)" height="1" width="1" x="28" y="10" /><rect fill="rgb(179,139,7)" height="1" width="1" x="3" y="11" /><rect fill="rgb(214,165,2)" height="1" width="1" x="4" y="11" /><rect fill="rgb(195,149,2)" height="1" width="1" x="5" y="11" /><rect fill="rgb(208,160,3)" height="1" width="1" x="6" y="11" /><rect fill="rgb(196,148,2)" height="1" width="1" x="7" y="11" /><rect fill="rgb(192,146,3)" height="1" width="1" x="8" y="11" /><rect fill="rgb(189,142,2)" height="1" width="1" x="9" y="11" /><rect fill="rgb(164,123,3)" height="1" width="1" x="10" y="11" /><rect fill="rgb(154,117,6)" height="1" width="1" x="11" y="11" /><rect fill="rgb(233,183,3)" height="1" width="1" x="12" y="11" /><rect fill="rgb(245,196,3)" height="1" width="1" x="13" y="11" /><rect fill="rgb(182,146,4)" height="1" width="1" x="14" y="11" /><rect fill="rgb(159,128,4)" height="1" width="1" x="15" y="11" /><rect fill="rgb(158,128,5)" height="1" width="1" x="16" y="11" /><rect fill="rgb(187,149,5)" height="1" width="1" x="17" y="11" /><rect fill="rgb(255,205,3)" height="1" width="1" x="18" y="11" /><rect fill="rgb(239,188,3)" height="1" width="1" x="19" y="11" /><rect fill="rgb(158,120,6)" height="1" width="1" x="20" y="11" /><rect fill="rgb(155,116,3)" height="1" width="1" x="21" y="11" /><rect fill="rgb(188,141,2)" height="1" width="1" x="22" y="11" /><rect fill="rgb(191,144,2)" height="1" width="1" x="23" y="11" /><rect fill="rgb(203,156,2)" height="1" width="1" x="24" y="11" /><rect fill="rgb(210,163,3)" height="1" width="1" x="25" y="11" /><rect fill="rgb(194,147,2)" height="1" width="1" x="26" y="11" /><rect fill="rgb(208,160,3)" height="1" width="1" x="27" y="11" /><rect fill="rgb(179,139,6)" height="1" width="1" x="28" y="11" /><rect fill="rgb(31,25,4)" height="1" width="1" x="2" y="12" /><rect fill="rgb(198,154,6)" height="1" width="1" x="3" y="12" /><rect fill="rgb(205,158,2)" height="1" width="1" x="4" y="12" /><rect fill="rgb(207,160,3)" height="1" width="1" x="5" y="12" /><rect fill="rgb(195,147,2)" height="1" width="1" x="6" y="12" /><rect fill="rgb(200,153,2)" height="1" width="1" x="7" y="12" /><rect fill="rgb(197,150,3)" height="1" width="1" x="8" y="12" /><rect fill="rgb(177,133,2)" height="1" width="1" x="9" y="12" /><rect fill="rgb(135,102,6)" height="1" width="1" x="10" y="12" /><rect fill="rgb(223,174,3)" height="1" width="1" x="11" y="12" /><rect fill="rgb(229,186,4)" height="1" width="1" x="12" y="12" /><rect fill="rgb(108,87,6)" height="1" width="1" x="13" y="12" /><rect fill="rgb(91,70,4)" height="1" width="1" x="14" y="12" /><rect fill="rgb(128,97,3)" height="1" width="1" x="15" y="12" /><rect fill="rgb(118,90,3)" height="1" width="1" x="16" y="12" /><rect fill="rgb(97,75,4)" height="1" width="1" x="17" y="12" /><rect fill="rgb(120,96,6)" height="1" width="1" x="18" y="12" /><rect fill="rgb(227,181,4)" height="1" width="1" x="19" y="12" /><rect fill="rgb(227,177,4)" height="1" width="1" x="20" y="12" /><rect fill="rgb(152,114,6)" height="1" width="1" x="21" y="12" /><rect fill="rgb(177,133,3)" height="1" width="1" x="22" y="12" /><rect fill="rgb(197,149,3)" height="1" width="1" x="23" y="12" /><rect fill="rgb(204,158,3)" height="1" width="1" x="24" y="12" /><rect fill="rgb(203,155,3)" height="1" width="1" x="25" y="12" /><rect fill="rgb(203,156,3)" height="1" width="1" x="26" y="12" /><rect fill="rgb(204,156,3)" height="1" width="1" x="27" y="12" /><rect fill="rgb(202,156,5)" height="1" width="1" x="28" y="12" /><rect fill="rgb(32,26,3)" height="1" width="1" x="29" y="12" /><rect fill="rgb(179,139,7)" height="1" width="1" x="3" y="13" /><rect fill="rgb(211,162,2)" height="1" width="1" x="4" y="13" /><rect fill="rgb(200,153,2)" height="1" width="1" x="5" y="13" /><rect fill="rgb(209,162,2)" height="1" width="1" x="6" y="13" /><rect fill="rgb(196,149,2)" height="1" width="1" x="7" y="13" /><rect fill="rgb(190,143,1)" height="1" width="1" x="8" y="13" /><rect fill="rgb(146,109,3)" height="1" width="1" x="9" y="13" /><rect fill="rgb(177,138,6)" height="1" width="1" x="10" y="13" /><rect fill="rgb(251,203,3)" height="1" width="1" x="11" y="13" /><rect fill="rgb(107,87,6)" height="1" width="1" x="12" y="13" /><rect fill="rgb(109,84,3)" height="1" width="1" x="13" y="13" /><rect fill="rgb(185,143,4)" height="1" width="1" x="14" y="13" /><rect fill="rgb(171,133,5)" height="1" width="1" x="15" y="13" /><rect fill="rgb(172,133,5)" height="1" width="1" x="16" y="13" /><rect fill="rgb(169,130,4)" height="1" width="1" x="17" y="13" /><rect fill="rgb(111,85,3)" height="1" width="1" x="18" y="13" /><rect fill="rgb(100,80,7)" height="1" width="1" x="19" y="13" /><rect fill="rgb(242,193,3)" height="1" width="1" x="20" y="13" /><rect fill="rgb(182,139,6)" height="1" width="1" x="21" y="13" /><rect fill="rgb(158,119,5)" height="1" width="1" x="22" y="13" /><rect fill="rgb(192,144,2)" height="1" width="1" x="23" y="13" /><rect fill="rgb(201,153,2)" height="1" width="1" x="24" y="13" /><rect fill="rgb(204,156,3)" height="1" width="1" x="25" y="13" /><rect fill="rgb(195,148,2)" height="1" width="1" x="26" y="13" /><rect fill="rgb(214,165,2)" height="1" width="1" x="27" y="13" /><rect fill="rgb(175,134,6)" height="1" width="1" x="28" y="13" /><rect fill="rgb(78,62,5)" height="1" width="1" x="2" y="14" /><rect fill="rgb(220,170,5)" height="1" width="1" x="3" y="14" /><rect fill="rgb(194,147,1)" height="1" width="1" x="4" y="14" /><rect fill="rgb(204,157,2)" height="1" width="1" x="5" y="14" /><rect fill="rgb(204,157,2)" height="1" width="1" x="6" y="14" /><rect fill="rgb(195,148,2)" height="1" width="1" x="7" y="14" /><rect fill="rgb(189,142,2)" height="1" width="1" x="8" y="14" /><rect fill="rgb(141,106,4)" height="1" width="1" x="9" y="14" /><rect fill="rgb(220,173,3)" height="1" width="1" x="10" y="14" /><rect fill="rgb(197,159,5)" height="1" width="1" x="11" y="14" /><rect fill="rgb(89,69,4)" height="1" width="1" x="12" y="14" /><rect fill="rgb(165,127,5)" height="1" width="1" x="13" y="14" /><rect fill="rgb(192,150,5)" height="1" width="1" x="14" y="14" /><rect fill="rgb(197,154,4)" height="1" width="1" x="15" y="14" /><rect fill="rgb(191,150,3)" height="1" width="1" x="16" y="14" /><rect fill="rgb(189,149,4)" height="1" width="1" x="17" y="14" /><rect fill="rgb(179,139,4)" height="1" width="1" x="18" y="14" /><rect fill="rgb(93,72,5)" height="1" width="1" x="19" y="14" /><rect fill="rgb(193,155,5)" height="1" width="1" x="20" y="14" /><rect fill="rgb(222,174,5)" height="1" width="1" x="21" y="14" /><rect fill="rgb(143,108,5)" height="1" width="1" x="22" y="14" /><rect fill="rgb(190,143,2)" height="1" width="1" x="23" y="14" /><rect fill="rgb(191,145,2)" height="1" width="1" x="24" y="14" /><rect fill="rgb(212,164,3)" height="1" width="1" x="25" y="14" /><rect fill="rgb(198,151,2)" height="1" width="1" x="26" y="14" /><rect fill="rgb(199,151,2)" height="1" width="1" x="27" y="14" /><rect fill="rgb(216,165,3)" height="1" width="1" x="28" y="14" /><rect fill="rgb(78,61,4)" height="1" width="1" x="29" y="14" /><rect fill="rgb(99,79,5)" height="1" width="1" x="2" y="15" /><rect fill="rgb(223,171,3)" height="1" width="1" x="3" y="15" /><rect fill="rgb(201,155,2)" height="1" width="1" x="4" y="15" /><rect fill="rgb(205,157,2)" height="1" width="1" x="5" y="15" /><rect fill="rgb(200,152,2)" height="1" width="1" x="6" y="15" /><rect fill="rgb(200,153,2)" height="1" width="1" x="7" y="15" /><rect fill="rgb(186,139,2)" height="1" width="1" x="8" y="15" /><rect fill="rgb(136,102,4)" height="1" width="1" x="9" y="15" /><rect fill="rgb(231,180,3)" height="1" width="1" x="10" y="15" /><rect fill="rgb(149,121,6)" height="1" width="1" x="11" y="15" /><rect fill="rgb(129,99,4)" height="1" width="1" x="12" y="15" /><rect fill="rgb(187,144,4)" height="1" width="1" x="13" y="15" /><rect fill="rgb(188,147,5)" height="1" width="1" x="14" y="15" /><rect fill="rgb(208,164,3)" height="1" width="1" x="15" y="15" /><rect fill="rgb(204,161,3)" height="1" width="1" x="16" y="15" /><rect fill="rgb(198,156,4)" height="1" width="1" x="17" y="15" /><rect fill="rgb(187,145,4)" height="1" width="1" x="18" y="15" /><rect fill="rgb(127,97,3)" height="1" width="1" x="19" y="15" /><rect fill="rgb(153,123,6)" height="1" width="1" x="20" y="15" /><rect fill="rgb(224,174,4)" height="1" width="1" x="21" y="15" /><rect fill="rgb(143,108,5)" height="1" width="1" x="22" y="15" /><rect fill="rgb(187,141,2)" height="1" width="1" x="23" y="15" /><rect fill="rgb(194,147,2)" height="1" width="1" x="24" y="15" /><rect fill="rgb(200,152,2)" height="1" width="1" x="25" y="15" /><rect fill="rgb(195,147,1)" height="1" width="1" x="26" y="15" /><rect fill="rgb(201,154,2)" height="1" width="1" x="27" y="15" /><rect fill="rgb(220,169,3)" height="1" width="1" x="28" y="15" /><rect fill="rgb(95,75,5)" height="1" width="1" x="29" y="15" /><rect fill="rgb(24,21,4)" height="1" width="1" x="2" y="16" /><rect fill="rgb(195,152,7)" height="1" width="1" x="3" y="16" /><rect fill="rgb(207,158,2)" height="1" width="1" x="4" y="16" /><rect fill="rgb(198,152,2)" height="1" width="1" x="5" y="16" /><rect fill="rgb(209,162,3)" height="1" width="1" x="6" y="16" /><rect fill="rgb(186,140,1)" height="1" width="1" x="7" y="16" /><rect fill="rgb(190,143,2)" height="1" width="1" x="8" y="16" /><rect fill="rgb(148,112,5)" height="1" width="1" x="9" y="16" /><rect fill="rgb(226,175,3)" height="1" width="1" x="10" y="16" /><rect fill="rgb(149,121,6)" height="1" width="1" x="11" y="16" /><rect fill="rgb(129,98,4)" height="1" width="1" x="12" y="16" /><rect fill="rgb(186,144,4)" height="1" width="1" x="13" y="16" /><rect fill="rgb(184,143,4)" height="1" width="1" x="14" y="16" /><rect fill="rgb(202,158,3)" height="1" width="1" x="15" y="16" /><rect fill="rgb(202,159,3)" height="1" width="1" x="16" y="16" /><rect fill="rgb(179,139,5)" height="1" width="1" x="17" y="16" /><rect fill="rgb(189,147,4)" height="1" width="1" x="18" y="16" /><rect fill="rgb(128,98,3)" height="1" width="1" x="19" y="16" /><rect fill="rgb(147,118,5)" height="1" width="1" x="20" y="16" /><rect fill="rgb(223,174,4)" height="1" width="1" x="21" y="16" /><rect fill="rgb(142,106,6)" height="1" width="1" x="22" y="16" /><rect fill="rgb(185,139,2)" height="1" width="1" x="23" y="16" /><rect fill="rgb(191,145,2)" height="1" width="1" x="24" y="16" /><rect fill="rgb(187,142,2)" height="1" width="1" x="25" y="16" /><rect fill="rgb(190,144,2)" height="1" width="1" x="26" y="16" /><rect fill="rgb(200,151,2)" height="1" width="1" x="27" y="16" /><rect fill="rgb(190,146,6)" height="1" width="1" x="28" y="16" /><rect fill="rgb(24,20,3)" height="1" width="1" x="29" y="16" /><rect fill="rgb(48,38,5)" height="1" width="1" x="3" y="17" /><rect fill="rgb(181,138,6)" height="1" width="1" x="4" y="17" /><rect fill="rgb(209,159,3)" height="1" width="1" x="5" y="17" /><rect fill="rgb(209,158,3)" height="1" width="1" x="6" y="17" /><rect fill="rgb(198,149,2)" height="1" width="1" x="7" y="17" /><rect fill="rgb(178,132,2)" height="1" width="1" x="8" y="17" /><rect fill="rgb(128,97,5)" height="1" width="1" x="9" y="17" /><rect fill="rgb(209,162,4)" height="1" width="1" x="10" y="17" /><rect fill="rgb(194,157,6)" height="1" width="1" x="11" y="17" /><rect fill="rgb(103,79,4)" height="1" width="1" x="12" y="17" /><rect fill="rgb(173,133,5)" height="1" width="1" x="13" y="17" /><rect fill="rgb(178,138,5)" height="1" width="1" x="14" y="17" /><rect fill="rgb(186,145,4)" height="1" width="1" x="15" y="17" /><rect fill="rgb(183,143,4)" height="1" width="1" x="16" y="17" /><rect fill="rgb(180,140,6)" height="1" width="1" x="17" y="17" /><rect fill="rgb(169,129,4)" height="1" width="1" x="18" y="17" /><rect fill="rgb(98,75,4)" height="1" width="1" x="19" y="17" /><rect fill="rgb(191,152,5)" height="1" width="1" x="20" y="17" /><rect fill="rgb(211,165,5)" height="1" width="1" x="21" y="17" /><rect fill="rgb(133,100,5)" height="1" width="1" x="22" y="17" /><rect fill="rgb(182,136,2)" height="1" width="1" x="23" y="17" /><rect fill="rgb(200,151,2)" height="1" width="1" x="24" y="17" /><rect fill="rgb(197,148,3)" height="1" width="1" x="25" y="17" /><rect fill="rgb(200,151,3)" height="1" width="1" x="26" y="17" /><rect fill="rgb(187,143,7)" height="1" width="1" x="27" y="17" /><rect fill="rgb(49,39,4)" height="1" width="1" x="28" y="17" /><rect fill="rgb(78,61,4)" height="1" width="1" x="5" y="18" /><rect fill="rgb(112,84,4)" height="1" width="1" x="6" y="18" /><rect fill="rgb(113,84,5)" height="1" width="1" x="7" y="18" /><rect fill="rgb(137,103,6)" height="1" width="1" x="8" y="18" /><rect fill="rgb(113,84,5)" height="1" width="1" x="9" y="18" /><rect fill="rgb(162,123,5)" height="1" width="1" x="10" y="18" /><rect fill="rgb(243,192,3)" height="1" width="1" x="11" y="18" /><rect fill="rgb(122,99,6)" height="1" width="1" x="12" y="18" /><rect fill="rgb(112,86,3)" height="1" width="1" x="13" y="18" /><rect fill="rgb(176,135,4)" height="1" width="1" x="14" y="18" /><rect fill="rgb(175,135,5)" height="1" width="1" x="15" y="18" /><rect fill="rgb(172,133,5)" height="1" width="1" x="16" y="18" /><rect fill="rgb(177,136,4)" height="1" width="1" x="17" y="18" /><rect fill="rgb(115,88,3)" height="1" width="1" x="18" y="18" /><rect fill="rgb(113,91,7)" height="1" width="1" x="19" y="18" /><rect fill="rgb(234,182,3)" height="1" width="1" x="20" y="18" /><rect fill="rgb(153,115,6)" height="1" width="1" x="21" y="18" /><rect fill="rgb(122,92,5)" height="1" width="1" x="22" y="18" /><rect fill="rgb(150,113,5)" height="1" width="1" x="23" y="18" /><rect fill="rgb(113,84,4)" height="1" width="1" x="24" y="18" /><rect fill="rgb(112,84,4)" height="1" width="1" x="25" y="18" /><rect fill="rgb(77,61,4)" height="1" width="1" x="26" y="18" /><rect fill="rgb(21,17,3)" height="1" width="1" x="27" y="18" /><rect fill="rgb(118,89,5)" height="1" width="1" x="7" y="19" /><rect fill="rgb(182,136,4)" height="1" width="1" x="8" y="19" /><rect fill="rgb(182,136,2)" height="1" width="1" x="9" y="19" /><rect fill="rgb(132,99,5)" height="1" width="1" x="10" y="19" /><rect fill="rgb(209,160,5)" height="1" width="1" x="11" y="19" /><rect fill="rgb(223,175,4)" height="1" width="1" x="12" y="19" /><rect fill="rgb(112,90,6)" height="1" width="1" x="13" y="19" /><rect fill="rgb(104,80,4)" height="1" width="1" x="14" y="19" /><rect fill="rgb(136,104,3)" height="1" width="1" x="15" y="19" /><rect fill="rgb(127,97,3)" height="1" width="1" x="16" y="19" /><rect fill="rgb(98,76,4)" height="1" width="1" x="17" y="19" /><rect fill="rgb(107,86,6)" height="1" width="1" x="18" y="19" /><rect fill="rgb(225,177,4)" height="1" width="1" x="19" y="19" /><rect fill="rgb(214,164,4)" height="1" width="1" x="20" y="19" /><rect fill="rgb(141,106,6)" height="1" width="1" x="21" y="19" /><rect fill="rgb(176,131,2)" height="1" width="1" x="22" y="19" /><rect fill="rgb(181,136,3)" height="1" width="1" x="23" y="19" /><rect fill="rgb(121,91,5)" height="1" width="1" x="24" y="19" /><rect fill="rgb(159,122,5)" height="1" width="1" x="6" y="20" /><rect fill="rgb(220,167,2)" height="1" width="1" x="7" y="20" /><rect fill="rgb(196,149,3)" height="1" width="1" x="8" y="20" /><rect fill="rgb(193,145,3)" height="1" width="1" x="9" y="20" /><rect fill="rgb(167,126,3)" height="1" width="1" x="10" y="20" /><rect fill="rgb(137,103,7)" height="1" width="1" x="11" y="20" /><rect fill="rgb(203,153,5)" height="1" width="1" x="12" y="20" /><rect fill="rgb(235,183,3)" height="1" width="1" x="13" y="20" /><rect fill="rgb(189,147,5)" height="1" width="1" x="14" y="20" /><rect fill="rgb(155,123,6)" height="1" width="1" x="15" y="20" /><rect fill="rgb(157,124,6)" height="1" width="1" x="16" y="20" /><rect fill="rgb(195,154,6)" height="1" width="1" x="17" y="20" /><rect fill="rgb(232,180,4)" height="1" width="1" x="18" y="20" /><rect fill="rgb(211,161,5)" height="1" width="1" x="19" y="20" /><rect fill="rgb(135,102,6)" height="1" width="1" x="20" y="20" /><rect fill="rgb(161,120,2)" height="1" width="1" x="21" y="20" /><rect fill="rgb(201,152,3)" height="1" width="1" x="22" y="20" /><rect fill="rgb(201,154,2)" height="1" width="1" x="23" y="20" /><rect fill="rgb(220,168,3)" height="1" width="1" x="24" y="20" /><rect fill="rgb(160,124,7)" height="1" width="1" x="25" y="20" /><rect fill="rgb(94,73,5)" height="1" width="1" x="5" y="21" /><rect fill="rgb(219,167,3)" height="1" width="1" x="6" y="21" /><rect fill="rgb(196,150,2)" height="1" width="1" x="7" y="21" /><rect fill="rgb(199,151,2)" height="1" width="1" x="8" y="21" /><rect fill="rgb(195,149,3)" height="1" width="1" x="9" y="21" /><rect fill="rgb(186,140,2)" height="1" width="1" x="10" y="21" /><rect fill="rgb(151,113,2)" height="1" width="1" x="11" y="21" /><rect fill="rgb(139,104,6)" height="1" width="1" x="12" y="21" /><rect fill="rgb(162,122,7)" height="1" width="1" x="13" y="21" /><rect fill="rgb(195,147,5)" height="1" width="1" x="14" y="21" /><rect fill="rgb(214,162,3)" height="1" width="1" x="15" y="21" /><rect fill="rgb(208,157,4)" height="1" width="1" x="16" y="21" /><rect fill="rgb(193,146,5)" height="1" width="1" x="17" y="21" /><rect fill="rgb(159,118,6)" height="1" width="1" x="18" y="21" /><rect fill="rgb(135,101,6)" height="1" width="1" x="19" y="21" /><rect fill="rgb(158,118,2)" height="1" width="1" x="20" y="21" /><rect fill="rgb(191,145,3)" height="1" width="1" x="21" y="21" /><rect fill="rgb(202,154,3)" height="1" width="1" x="22" y="21" /><rect fill="rgb(205,158,3)" height="1" width="1" x="23" y="21" /><rect fill="rgb(208,161,3)" height="1" width="1" x="24" y="21" /><rect fill="rgb(221,169,3)" height="1" width="1" x="25" y="21" /><rect fill="rgb(88,68,5)" height="1" width="1" x="26" y="21" /><rect fill="rgb(128,101,5)" height="1" width="1" x="5" y="22" /><rect fill="rgb(220,170,3)" height="1" width="1" x="6" y="22" /><rect fill="rgb(202,155,2)" height="1" width="1" x="7" y="22" /><rect fill="rgb(208,160,3)" height="1" width="1" x="8" y="22" /><rect fill="rgb(190,143,2)" height="1" width="1" x="9" y="22" /><rect fill="rgb(193,146,2)" height="1" width="1" x="10" y="22" /><rect fill="rgb(206,158,3)" height="1" width="1" x="11" y="22" /><rect fill="rgb(181,135,2)" height="1" width="1" x="12" y="22" /><rect fill="rgb(158,118,3)" height="1" width="1" x="13" y="22" /><rect fill="rgb(153,114,4)" height="1" width="1" x="14" y="22" /><rect fill="rgb(107,80,5)" height="1" width="1" x="15" y="22" /><rect fill="rgb(108,81,4)" height="1" width="1" x="16" y="22" /><rect fill="rgb(154,115,3)" height="1" width="1" x="17" y="22" /><rect fill="rgb(167,126,2)" height="1" width="1" x="18" y="22" /><rect fill="rgb(187,140,2)" height="1" width="1" x="19" y="22" /><rect fill="rgb(193,146,3)" height="1" width="1" x="20" y="22" /><rect fill="rgb(193,146,2)" height="1" width="1" x="21" y="22" /><rect fill="rgb(209,161,3)" height="1" width="1" x="22" y="22" /><rect fill="rgb(209,161,2)" height="1" width="1" x="23" y="22" /><rect fill="rgb(200,152,2)" height="1" width="1" x="24" y="22" /><rect fill="rgb(217,166,3)" height="1" width="1" x="25" y="22" /><rect fill="rgb(123,97,4)" height="1" width="1" x="26" y="22" /><rect fill="rgb(122,97,6)" height="1" width="1" x="5" y="23" /><rect fill="rgb(212,160,2)" height="1" width="1" x="6" y="23" /><rect fill="rgb(199,153,2)" height="1" width="1" x="7" y="23" /><rect fill="rgb(196,150,2)" height="1" width="1" x="8" y="23" /><rect fill="rgb(199,152,3)" height="1" width="1" x="9" y="23" /><rect fill="rgb(198,150,3)" height="1" width="1" x="10" y="23" /><rect fill="rgb(193,146,2)" height="1" width="1" x="11" y="23" /><rect fill="rgb(196,148,3)" height="1" width="1" x="12" y="23" /><rect fill="rgb(179,134,2)" height="1" width="1" x="13" y="23" /><rect fill="rgb(190,140,1)" height="1" width="1" x="14" y="23" /><rect fill="rgb(120,90,4)" height="1" width="1" x="15" y="23" /><rect fill="rgb(123,92,3)" height="1" width="1" x="16" y="23" /><rect fill="rgb(188,139,2)" height="1" width="1" x="17" y="23" /><rect fill="rgb(173,129,1)" height="1" width="1" x="18" y="23" /><rect fill="rgb(187,142,2)" height="1" width="1" x="19" y="23" /><rect fill="rgb(191,145,2)" height="1" width="1" x="20" y="23" /><rect fill="rgb(208,160,3)" height="1" width="1" x="21" y="23" /><rect fill="rgb(206,158,3)" height="1" width="1" x="22" y="23" /><rect fill="rgb(200,152,3)" height="1" width="1" x="23" y="23" /><rect fill="rgb(198,151,3)" height="1" width="1" x="24" y="23" /><rect fill="rgb(228,176,3)" height="1" width="1" x="25" y="23" /><rect fill="rgb(113,88,5)" height="1" width="1" x="26" y="23" /><rect fill="rgb(39,32,4)" height="1" width="1" x="5" y="24" /><rect fill="rgb(199,154,6)" height="1" width="1" x="6" y="24" /><rect fill="rgb(199,151,1)" height="1" width="1" x="7" y="24" /><rect fill="rgb(195,148,2)" height="1" width="1" x="8" y="24" /><rect fill="rgb(212,164,3)" height="1" width="1" x="9" y="24" /><rect fill="rgb(189,142,1)" height="1" width="1" x="10" y="24" /><rect fill="rgb(205,156,2)" height="1" width="1" x="11" y="24" /><rect fill="rgb(180,134,1)" height="1" width="1" x="12" y="24" /><rect fill="rgb(190,143,2)" height="1" width="1" x="13" y="24" /><rect fill="rgb(197,147,2)" height="1" width="1" x="14" y="24" /><rect fill="rgb(75,56,5)" height="1" width="1" x="15" y="24" /><rect fill="rgb(80,59,4)" height="1" width="1" x="16" y="24" /><rect fill="rgb(199,150,3)" height="1" width="1" x="17" y="24" /><rect fill="rgb(192,146,3)" height="1" width="1" x="18" y="24" /><rect fill="rgb(195,148,2)" height="1" width="1" x="19" y="24" /><rect fill="rgb(200,153,2)" height="1" width="1" x="20" y="24" /><rect fill="rgb(196,150,2)" height="1" width="1" x="21" y="24" /><rect fill="rgb(202,155,2)" height="1" width="1" x="22" y="24" /><rect fill="rgb(200,152,3)" height="1" width="1" x="23" y="24" /><rect fill="rgb(206,157,2)" height="1" width="1" x="24" y="24" /><rect fill="rgb(187,142,6)" height="1" width="1" x="25" y="24" /><rect fill="rgb(34,26,4)" height="1" width="1" x="26" y="24" /><rect fill="rgb(36,30,4)" height="1" width="1" x="6" y="25" /><rect fill="rgb(199,152,5)" height="1" width="1" x="7" y="25" /><rect fill="rgb(207,157,2)" height="1" width="1" x="8" y="25" /><rect fill="rgb(194,148,2)" height="1" width="1" x="9" y="25" /><rect fill="rgb(201,154,2)" height="1" width="1" x="10" y="25" /><rect fill="rgb(193,146,1)" height="1" width="1" x="11" y="25" /><rect fill="rgb(199,152,3)" height="1" width="1" x="12" y="25" /><rect fill="rgb(191,144,2)" height="1" width="1" x="13" y="25" /><rect fill="rgb(188,140,3)" height="1" width="1" x="14" y="25" /><rect fill="rgb(31,23,3)" height="1" width="1" x="15" y="25" /><rect fill="rgb(35,26,3)" height="1" width="1" x="16" y="25" /><rect fill="rgb(191,142,3)" height="1" width="1" x="17" y="25" /><rect fill="rgb(190,143,2)" height="1" width="1" x="18" y="25" /><rect fill="rgb(194,146,2)" height="1" width="1" x="19" y="25" /><rect fill="rgb(201,154,2)" height="1" width="1" x="20" y="25" /><rect fill="rgb(206,158,3)" height="1" width="1" x="21" y="25" /><rect fill="rgb(202,155,2)" height="1" width="1" x="22" y="25" /><rect fill="rgb(208,158,1)" height="1" width="1" x="23" y="25" /><rect fill="rgb(194,149,5)" height="1" width="1" x="24" y="25" /><rect fill="rgb(26,20,3)" height="1" width="1" x="25" y="25" /><rect fill="rgb(66,51,5)" height="1" width="1" x="7" y="26" /><rect fill="rgb(185,140,5)" height="1" width="1" x="8" y="26" /><rect fill="rgb(203,153,2)" height="1" width="1" x="9" y="26" /><rect fill="rgb(205,156,2)" height="1" width="1" x="10" y="26" /><rect fill="rgb(201,154,3)" height="1" width="1" x="11" y="26" /><rect fill="rgb(189,143,2)" height="1" width="1" x="12" y="26" /><rect fill="rgb(199,148,2)" height="1" width="1" x="13" y="26" /><rect fill="rgb(145,109,6)" height="1" width="1" x="14" y="26" /><rect fill="rgb(151,114,6)" height="1" width="1" x="17" y="26" /><rect fill="rgb(208,156,2)" height="1" width="1" x="18" y="26" /><rect fill="rgb(196,150,3)" height="1" width="1" x="19" y="26" /><rect fill="rgb(192,145,1)" height="1" width="1" x="20" y="26" /><rect fill="rgb(202,154,2)" height="1" width="1" x="21" y="26" /><rect fill="rgb(210,159,2)" height="1" width="1" x="22" y="26" /><rect fill="rgb(185,142,6)" height="1" width="1" x="23" y="26" /><rect fill="rgb(51,41,5)" height="1" width="1" x="24" y="26" /><rect fill="rgb(20,16,3)" height="1" width="1" x="8" y="27" /><rect fill="rgb(104,80,7)" height="1" width="1" x="9" y="27" /><rect fill="rgb(191,147,6)" height="1" width="1" x="10" y="27" /><rect fill="rgb(217,166,4)" height="1" width="1" x="11" y="27" /><rect fill="rgb(210,158,4)" height="1" width="1" x="12" y="27" /><rect fill="rgb(160,121,6)" height="1" width="1" x="13" y="27" /><rect fill="rgb(28,22,4)" height="1" width="1" x="14" y="27" /><rect fill="rgb(29,23,4)" height="1" width="1" x="17" y="27" /><rect fill="rgb(176,135,8)" height="1" width="1" x="18" y="27" /><rect fill="rgb(212,161,3)" height="1" width="1" x="19" y="27" /><rect fill="rgb(219,168,4)" height="1" width="1" x="20" y="27" /><rect fill="rgb(193,147,6)" height="1" width="1" x="21" y="27" /><rect fill="rgb(108,84,7)" height="1" width="1" x="22" y="27" /><rect fill="rgb(20,17,3)" height="1" width="1" x="23" y="27" /><rect fill="rgb(21,17,3)" height="1" width="1" x="10" y="28" /><rect fill="rgb(88,67,4)" height="1" width="1" x="11" y="28" /><rect fill="rgb(87,66,4)" height="1" width="1" x="12" y="28" /><rect fill="rgb(90,69,5)" height="1" width="1" x="19" y="28" /><rect fill="rgb(86,66,4)" height="1" width="1" x="20" y="28" /><rect fill="rgb(31,25,4)" height="1" width="1" x="21" y="28" /></svg>